<?xml version="1.0" encoding="UTF-8"?>
<svg xmlns="http://www.w3.org/2000/svg" xmlns:xlink="http://www.w3.org/1999/xlink" width="32px" height="32px" viewBox="0 0 32 32" version="1.1">
<g id="surface1">
<path style=" stroke:none;fill-rule:evenodd;fill:rgb(9.019608%,46.666667%,94.901961%);fill-opacity:1;" d="M 28.089844 0 C 30.25 0 32 1.75 32 3.910156 L 32 28.089844 C 32 30.25 30.25 32 28.089844 32 L 21.4375 32 L 21.4375 19.941406 L 25.597656 19.941406 L 26.390625 14.777344 L 21.4375 14.777344 L 21.4375 11.429688 C 21.4375 10.015625 22.128906 8.636719 24.347656 8.636719 L 26.601562 8.636719 L 26.601562 4.242188 C 26.601562 4.242188 24.554688 3.894531 22.601562 3.894531 C 18.519531 3.894531 15.855469 6.367188 15.855469 10.84375 L 15.855469 14.777344 L 11.316406 14.777344 L 11.316406 19.941406 L 15.855469 19.941406 L 15.855469 32 L 3.910156 32 C 1.75 32 0 30.25 0 28.089844 L 0 3.910156 C 0 1.75 1.75 0 3.910156 0 Z M 28.089844 0 "/>
</g>
</svg>
